<svg width="31" height="35" viewBox="0 0 31 35" fill="none" xmlns="http://www.w3.org/2000/svg">
<path d="M28.7857 4.33429V32.5071H5.53571C3.70118 32.5071 2.21429 31.0519 2.21429 29.2564C2.21429 27.461 3.70118 26.0057 5.53571 26.0057H26.5714V0H4.42857C1.99286 0 0 1.95043 0 4.33429V30.34C0 32.7239 1.99286 34.6743 4.42857 34.6743H31V4.33429H28.7857Z" fill="url(#paint0_linear)"/>
<path d="M5.68557 27.9632C5.68448 27.9632 5.68448 27.9632 5.68339 27.9632C5.08127 27.9632 4.59259 28.4643 4.59259 29.0817C4.59259 29.6991 5.08127 30.2002 5.68339 30.2002C5.68448 30.2002 5.68448 30.2002 5.68557 30.2002H26.4074V27.9632H5.68557Z" fill="url(#paint1_linear)"/>
<defs>
<linearGradient id="paint0_linear" x1="0" y1="0" x2="30.2466" y2="35.3195" gradientUnits="userSpaceOnUse">
<stop stop-color="#001AFF"/>
<stop offset="1" stop-color="#FF0000"/>
</linearGradient>
<linearGradient id="paint1_linear" x1="1.32036" y1="0.745711" x2="32.7259" y2="35.3816" gradientUnits="userSpaceOnUse">
<stop stop-color="#001AFF"/>
<stop offset="1" stop-color="#FF0000"/>
</linearGradient>
</defs>
</svg>
